<?xml version="1.0" standalone="no"?>
<!DOCTYPE svg PUBLIC "-//W3C//DTD SVG 20010904//EN"
 "http://www.w3.org/TR/2001/REC-SVG-20010904/DTD/svg10.dtd">
<svg version="1.0" xmlns="http://www.w3.org/2000/svg"
 width="300.000000pt" height="300.000000pt" viewBox="0 0 300.000000 300.000000"
 preserveAspectRatio="xMidYMid meet">
<metadata>
Created by potrace 1.14, written by Peter Selinger 2001-2017
</metadata>
<g transform="translate(0.000000,300.000000) scale(0.100000,-0.100000)"
fill="#000000" stroke="none">
<path d="M1833 2915 c-56 -48 -104 -131 -158 -274 -111 -290 -137 -496 -110
-875 l7 -108 -31 29 c-17 17 -31 34 -31 40 0 17 -41 53 -60 53 -26 0 -27 -45
-3 -72 16 -18 46 -108 36 -108 -3 0 -23 13 -46 28 -61 42 -240 143 -329 185
-197 94 -443 147 -673 143 -97 -2 -129 -6 -165 -22 -60 -28 -75 -48 -75 -103
0 -158 220 -349 492 -427 8 -2 1 -14 -17 -32 -34 -35 -53 -99 -44 -150 21
-110 150 -210 284 -220 76 -5 160 19 253 74 32 19 61 34 64 34 3 0 -6 -15 -19
-32 -86 -114 -105 -242 -54 -353 33 -73 59 -102 111 -126 158 -73 306 85 323
346 l7 100 18 -70 c10 -38 45 -140 77 -226 62 -166 86 -244 105 -349 11 -63
12 -170 1 -220 -9 -44 -14 -65 -21 -85 l-7 -20 14 20 c44 59 76 204 72 325 -3
123 -29 208 -121 410 -47 101 -101 255 -112 315 -6 33 -13 102 -16 154 -3 51
-6 96 -7 100 -3 27 8 17 43 -41 42 -69 155 -195 166 -185 15 16 -41 167 -89
237 -13 19 -28 42 -33 50 -5 8 14 1 41 -15 182 -106 245 -161 395 -345 126
-155 182 -216 239 -262 95 -75 225 -125 352 -132 65 -5 62 6 -6 18 -132 24
-309 157 -481 361 -33 39 -95 105 -139 148 l-80 77 76 -35 c189 -87 348 -76
432 28 27 34 31 46 31 100 0 112 -68 206 -181 252 -51 21 -72 24 -151 21 -51
-2 -93 -3 -93 -1 0 2 19 15 43 28 105 62 183 154 207 247 53 198 -77 395 -226
344 -21 -7 -39 -12 -40 -11 -1 1 3 40 10 87 40 270 -60 558 -200 577 -34 4
-44 0 -81 -32z m76 -195 c24 -12 58 -94 66 -155 9 -80 12 -125 9 -125 -1 0
-13 18 -25 40 -44 77 -124 77 -198 1 -37 -38 -52 -64 -74 -132 -15 -46 -27
-93 -27 -103 0 -11 -3 -17 -6 -13 -10 10 24 188 51 266 63 180 135 258 204
221z m-29 -571 c13 -31 15 -92 4 -142 -6 -31 -6 -31 12 -16 22 19 80 50 91 48
74 -11 72 -114 -4 -191 -42 -43 -179 -140 -266 -188 l-56 -31 -7 26 c-6 25 2
212 11 238 2 6 6 26 9 44 7 53 47 166 72 203 13 19 34 39 46 46 31 17 73 -1
88 -37z m373 2 c45 -50 61 -100 53 -163 -10 -72 -41 -130 -97 -183 -45 -42
-174 -114 -185 -103 -2 3 15 18 38 33 100 66 166 161 174 253 4 55 -12 148
-32 180 -25 38 9 27 49 -17z m-1427 -322 c60 -17 113 -34 119 -40 5 -5 -13 -3
-40 6 -112 33 -240 22 -295 -24 -25 -20 -33 -36 -37 -72 -5 -48 16 -109 39
-109 6 0 9 -3 5 -6 -6 -7 -108 52 -143 83 -34 29 -74 94 -74 119 0 87 199 107
426 43z m285 -179 c36 -5 95 -19 130 -31 69 -23 229 -98 229 -108 0 -11 -158
-111 -238 -151 -142 -72 -228 -77 -262 -17 -13 24 -13 30 0 54 9 15 33 38 55
50 35 20 36 24 10 23 -13 0 -102 50 -117 66 -33 38 -23 96 19 112 53 21 58 21
174 2z m1254 -116 c37 -24 68 -91 60 -130 -7 -40 -38 -79 -77 -100 -58 -30
-177 -12 -283 44 -54 29 -165 100 -165 107 0 2 19 -5 43 -15 65 -29 195 -60
249 -60 108 0 149 62 94 143 -13 19 -22 38 -19 40 6 7 73 -13 98 -29z m-1568
-328 c41 -39 138 -78 193 -79 55 -1 161 34 226 74 l49 30 -49 -46 c-127 -119
-263 -150 -379 -88 -61 34 -95 82 -103 148 l-6 50 20 -30 c10 -17 33 -43 49
-59z m731 -187 c-1 -150 -21 -222 -78 -273 -22 -20 -46 -36 -53 -37 -6 -1 -25
-2 -40 -3 -38 -4 -88 31 -108 74 -18 38 -19 104 -2 134 10 18 13 16 32 -22 12
-23 30 -46 42 -52 50 -27 112 20 143 107 16 47 22 74 38 188 11 76 12 78 19
40 4 -22 7 -92 7 -156z"/>
<path d="M1443 2225 c-39 -27 -84 -221 -55 -238 4 -3 6 16 6 41 -2 49 15 91
60 151 40 53 34 77 -11 46z"/>
<path d="M1037 1970 c-36 -22 -6 -32 78 -25 71 6 89 4 129 -13 25 -12 46 -19
46 -16 0 3 -26 17 -57 31 -64 28 -167 40 -196 23z"/>
<path d="M1392 1950 c0 -14 2 -19 5 -12 2 6 2 18 0 25 -3 6 -5 1 -5 -13z"/>
<path d="M1300 1906 c0 -2 8 -10 18 -17 15 -13 16 -12 3 4 -13 16 -21 21 -21
13z"/>
<path d="M1340 1866 c0 -2 7 -7 16 -10 8 -3 12 -2 9 4 -6 10 -25 14 -25 6z"/>
<path d="M1430 1811 c0 -6 4 -13 10 -16 6 -3 7 1 4 9 -7 18 -14 21 -14 7z"/>
</g>
</svg>
